<?xml version="1.0" encoding="UTF-8" standalone="no"?>
<svg xmlns="http://www.w3.org/2000/svg" xmlns:xlink="http://www.w3.org/1999/xlink" width="3000" height="3000" >
<line x1="375" y1="368.75" x2="450" y2="368.75" stroke-width="5" stroke="gray" />
<line x1="375" y1="500" x2="450" y2="500" stroke-width="5" stroke="gray" />
<line x1="375" y1="368.75" x2="375" y2="500" stroke-width="5" stroke="gray" />
<text x="385" y="439.375" font-family="Arial" font-size="30" font-weight="normal" fill="black" text-anchor="start">78</text>
<line x1="450" y1="312.5" x2="525" y2="312.5" stroke-width="5" stroke="gray" />
<line x1="450" y1="425" x2="525" y2="425" stroke-width="5" stroke="gray" />
<line x1="450" y1="312.5" x2="450" y2="425" stroke-width="5" stroke="gray" />
<text x="460" y="373.75" font-family="Arial" font-size="30" font-weight="normal" fill="black" text-anchor="start">36</text>
<line x1="525" y1="275" x2="600" y2="275" stroke-width="5" stroke="gray" />
<line x1="525" y1="350" x2="600" y2="350" stroke-width="5" stroke="gray" />
<line x1="525" y1="275" x2="525" y2="350" stroke-width="5" stroke="gray" />
<text x="535" y="317.5" font-family="Arial" font-size="30" font-weight="normal" fill="black" text-anchor="start">97</text>
<path d=" M 598 276 L 680 245 L 680 305 Z" stroke-width="1" stroke="dodgerblue" fill="dodgerblue" /><path d=" M 598 351 L 680 320 L 680 380 Z" stroke-width="1" stroke="orange" fill="orange" /><path d=" M 523 426 L 605 395 L 605 455 Z" stroke-width="1" stroke="green" fill="green" /><path d=" M 448 501 L 530 470 L 530 530 Z" stroke-width="1" stroke="crimson" fill="crimson" /><text x="300" y="615" font-family="Arial" font-size="30" font-weight="normal" fill="black" text-anchor="start">fasttree-0</text>
<line x1="975" y1="368.75" x2="1050" y2="368.75" stroke-width="5" stroke="gray" />
<line x1="975" y1="500" x2="1050" y2="500" stroke-width="5" stroke="gray" />
<line x1="975" y1="368.75" x2="975" y2="500" stroke-width="5" stroke="gray" />
<text x="985" y="439.375" font-family="Arial" font-size="30" font-weight="normal" fill="black" text-anchor="start">75</text>
<line x1="1050" y1="312.5" x2="1125" y2="312.5" stroke-width="5" stroke="gray" />
<line x1="1050" y1="425" x2="1125" y2="425" stroke-width="5" stroke="gray" />
<line x1="1050" y1="312.5" x2="1050" y2="425" stroke-width="5" stroke="gray" />
<text x="1060" y="373.75" font-family="Arial" font-size="30" font-weight="normal" fill="black" text-anchor="start">97</text>
<line x1="1125" y1="275" x2="1200" y2="275" stroke-width="5" stroke="gray" />
<line x1="1125" y1="350" x2="1200" y2="350" stroke-width="5" stroke="gray" />
<line x1="1125" y1="275" x2="1125" y2="350" stroke-width="5" stroke="gray" />
<text x="1135" y="317.5" font-family="Arial" font-size="30" font-weight="normal" fill="black" text-anchor="start">100</text>
<path d=" M 1198 276 L 1280 245 L 1280 305 Z" stroke-width="1" stroke="crimson" fill="crimson" /><path d=" M 1198 351 L 1280 320 L 1280 380 Z" stroke-width="1" stroke="green" fill="green" /><path d=" M 1123 426 L 1205 395 L 1205 455 Z" stroke-width="1" stroke="orange" fill="orange" /><path d=" M 1048 501 L 1130 470 L 1130 530 Z" stroke-width="1" stroke="dodgerblue" fill="dodgerblue" /><text x="900" y="615" font-family="Arial" font-size="30" font-weight="normal" fill="black" text-anchor="start">fasttree-M*</text>
<line x1="1575" y1="368.75" x2="1650" y2="368.75" stroke-width="5" stroke="gray" />
<line x1="1575" y1="500" x2="1650" y2="500" stroke-width="5" stroke="gray" />
<line x1="1575" y1="368.75" x2="1575" y2="500" stroke-width="5" stroke="gray" />
<text x="1585" y="439.375" font-family="Arial" font-size="30" font-weight="normal" fill="black" text-anchor="start">15</text>
<line x1="1650" y1="312.5" x2="1725" y2="312.5" stroke-width="5" stroke="gray" />
<line x1="1650" y1="425" x2="1725" y2="425" stroke-width="5" stroke="gray" />
<line x1="1650" y1="312.5" x2="1650" y2="425" stroke-width="5" stroke="gray" />
<text x="1660" y="373.75" font-family="Arial" font-size="30" font-weight="normal" fill="black" text-anchor="start">30</text>
<line x1="1725" y1="275" x2="1800" y2="275" stroke-width="5" stroke="gray" />
<line x1="1725" y1="350" x2="1800" y2="350" stroke-width="5" stroke="gray" />
<line x1="1725" y1="275" x2="1725" y2="350" stroke-width="5" stroke="gray" />
<text x="1735" y="317.5" font-family="Arial" font-size="30" font-weight="normal" fill="black" text-anchor="start">84</text>
<path d=" M 1798 276 L 1880 245 L 1880 305 Z" stroke-width="1" stroke="crimson" fill="crimson" /><path d=" M 1798 351 L 1880 320 L 1880 380 Z" stroke-width="1" stroke="green" fill="green" /><path d=" M 1723 426 L 1805 395 L 1805 455 Z" stroke-width="1" stroke="orange" fill="orange" /><path d=" M 1648 501 L 1730 470 L 1730 530 Z" stroke-width="1" stroke="dodgerblue" fill="dodgerblue" /><text x="1500" y="615" font-family="Arial" font-size="30" font-weight="normal" fill="black" text-anchor="start">fasttree-EF</text>
<line x1="2175" y1="368.75" x2="2250" y2="368.75" stroke-width="5" stroke="gray" />
<line x1="2175" y1="500" x2="2250" y2="500" stroke-width="5" stroke="gray" />
<line x1="2175" y1="368.75" x2="2175" y2="500" stroke-width="5" stroke="gray" />
<text x="2185" y="439.375" font-family="Arial" font-size="30" font-weight="normal" fill="black" text-anchor="start">71</text>
<line x1="2250" y1="312.5" x2="2325" y2="312.5" stroke-width="5" stroke="gray" />
<line x1="2250" y1="425" x2="2325" y2="425" stroke-width="5" stroke="gray" />
<line x1="2250" y1="312.5" x2="2250" y2="425" stroke-width="5" stroke="gray" />
<text x="2260" y="373.75" font-family="Arial" font-size="30" font-weight="normal" fill="black" text-anchor="start">86</text>
<line x1="2325" y1="275" x2="2400" y2="275" stroke-width="5" stroke="gray" />
<line x1="2325" y1="350" x2="2400" y2="350" stroke-width="5" stroke="gray" />
<line x1="2325" y1="275" x2="2325" y2="350" stroke-width="5" stroke="gray" />
<text x="2335" y="317.5" font-family="Arial" font-size="30" font-weight="normal" fill="black" text-anchor="start">98</text>
<path d=" M 2398 276 L 2480 245 L 2480 305 Z" stroke-width="1" stroke="crimson" fill="crimson" /><path d=" M 2398 351 L 2480 320 L 2480 380 Z" stroke-width="1" stroke="green" fill="green" /><path d=" M 2323 426 L 2405 395 L 2405 455 Z" stroke-width="1" stroke="orange" fill="orange" /><path d=" M 2248 501 L 2330 470 L 2330 530 Z" stroke-width="1" stroke="dodgerblue" fill="dodgerblue" /><text x="2100" y="615" font-family="Arial" font-size="30" font-weight="normal" fill="black" text-anchor="start">fasttree-ET</text>
<line x1="375" y1="968.75" x2="450" y2="968.75" stroke-width="5" stroke="gray" />
<line x1="375" y1="1100" x2="450" y2="1100" stroke-width="5" stroke="gray" />
<line x1="375" y1="968.75" x2="375" y2="1100" stroke-width="5" stroke="gray" />
<text x="385" y="1039.375" font-family="Arial" font-size="30" font-weight="normal" fill="black" text-anchor="start">47</text>
<line x1="450" y1="912.5" x2="525" y2="912.5" stroke-width="5" stroke="gray" />
<line x1="450" y1="1025" x2="525" y2="1025" stroke-width="5" stroke="gray" />
<line x1="450" y1="912.5" x2="450" y2="1025" stroke-width="5" stroke="gray" />
<text x="460" y="973.75" font-family="Arial" font-size="30" font-weight="normal" fill="black" text-anchor="start">59</text>
<line x1="525" y1="875" x2="600" y2="875" stroke-width="5" stroke="gray" />
<line x1="525" y1="950" x2="600" y2="950" stroke-width="5" stroke="gray" />
<line x1="525" y1="875" x2="525" y2="950" stroke-width="5" stroke="gray" />
<text x="535" y="917.5" font-family="Arial" font-size="30" font-weight="normal" fill="black" text-anchor="start">71</text>
<path d=" M 598 876 L 680 845 L 680 905 Z" stroke-width="1" stroke="crimson" fill="crimson" /><path d=" M 598 951 L 680 920 L 680 980 Z" stroke-width="1" stroke="green" fill="green" /><path d=" M 523 1026 L 605 995 L 605 1055 Z" stroke-width="1" stroke="orange" fill="orange" /><path d=" M 448 1101 L 530 1070 L 530 1130 Z" stroke-width="1" stroke="dodgerblue" fill="dodgerblue" /><text x="300" y="1215" font-family="Arial" font-size="30" font-weight="normal" fill="black" text-anchor="start">iqtree-0</text>
<line x1="975" y1="968.75" x2="1050" y2="968.75" stroke-width="5" stroke="gray" />
<line x1="975" y1="1100" x2="1050" y2="1100" stroke-width="5" stroke="gray" />
<line x1="975" y1="968.75" x2="975" y2="1100" stroke-width="5" stroke="gray" />
<text x="985" y="1039.375" font-family="Arial" font-size="30" font-weight="normal" fill="black" text-anchor="start">61</text>
<line x1="1050" y1="912.5" x2="1125" y2="912.5" stroke-width="5" stroke="gray" />
<line x1="1050" y1="1025" x2="1125" y2="1025" stroke-width="5" stroke="gray" />
<line x1="1050" y1="912.5" x2="1050" y2="1025" stroke-width="5" stroke="gray" />
<text x="1060" y="973.75" font-family="Arial" font-size="30" font-weight="normal" fill="black" text-anchor="start">88</text>
<line x1="1125" y1="875" x2="1200" y2="875" stroke-width="5" stroke="gray" />
<line x1="1125" y1="950" x2="1200" y2="950" stroke-width="5" stroke="gray" />
<line x1="1125" y1="875" x2="1125" y2="950" stroke-width="5" stroke="gray" />
<text x="1135" y="917.5" font-family="Arial" font-size="30" font-weight="normal" fill="black" text-anchor="start">100</text>
<path d=" M 1198 876 L 1280 845 L 1280 905 Z" stroke-width="1" stroke="crimson" fill="crimson" /><path d=" M 1198 951 L 1280 920 L 1280 980 Z" stroke-width="1" stroke="green" fill="green" /><path d=" M 1123 1026 L 1205 995 L 1205 1055 Z" stroke-width="1" stroke="orange" fill="orange" /><path d=" M 1048 1101 L 1130 1070 L 1130 1130 Z" stroke-width="1" stroke="dodgerblue" fill="dodgerblue" /><text x="900" y="1215" font-family="Arial" font-size="30" font-weight="normal" fill="black" text-anchor="start">iqtree-M*</text>
<line x1="1575" y1="968.75" x2="1650" y2="968.75" stroke-width="5" stroke="gray" />
<line x1="1575" y1="1100" x2="1650" y2="1100" stroke-width="5" stroke="gray" />
<line x1="1575" y1="968.75" x2="1575" y2="1100" stroke-width="5" stroke="gray" />
<text x="1585" y="1039.375" font-family="Arial" font-size="30" font-weight="normal" fill="black" text-anchor="start">21</text>
<line x1="1650" y1="912.5" x2="1725" y2="912.5" stroke-width="5" stroke="gray" />
<line x1="1650" y1="1025" x2="1725" y2="1025" stroke-width="5" stroke="gray" />
<line x1="1650" y1="912.5" x2="1650" y2="1025" stroke-width="5" stroke="gray" />
<text x="1660" y="973.75" font-family="Arial" font-size="30" font-weight="normal" fill="black" text-anchor="start">31</text>
<line x1="1725" y1="875" x2="1800" y2="875" stroke-width="5" stroke="gray" />
<line x1="1725" y1="950" x2="1800" y2="950" stroke-width="5" stroke="gray" />
<line x1="1725" y1="875" x2="1725" y2="950" stroke-width="5" stroke="gray" />
<text x="1735" y="917.5" font-family="Arial" font-size="30" font-weight="normal" fill="black" text-anchor="start">56</text>
<path d=" M 1798 876 L 1880 845 L 1880 905 Z" stroke-width="1" stroke="crimson" fill="crimson" /><path d=" M 1798 951 L 1880 920 L 1880 980 Z" stroke-width="1" stroke="green" fill="green" /><path d=" M 1723 1026 L 1805 995 L 1805 1055 Z" stroke-width="1" stroke="orange" fill="orange" /><path d=" M 1648 1101 L 1730 1070 L 1730 1130 Z" stroke-width="1" stroke="dodgerblue" fill="dodgerblue" /><text x="1500" y="1215" font-family="Arial" font-size="30" font-weight="normal" fill="black" text-anchor="start">iqtree-EF</text>
<line x1="2175" y1="968.75" x2="2250" y2="968.75" stroke-width="5" stroke="gray" />
<line x1="2175" y1="1100" x2="2250" y2="1100" stroke-width="5" stroke="gray" />
<line x1="2175" y1="968.75" x2="2175" y2="1100" stroke-width="5" stroke="gray" />
<text x="2185" y="1039.375" font-family="Arial" font-size="30" font-weight="normal" fill="black" text-anchor="start">73</text>
<line x1="2250" y1="912.5" x2="2325" y2="912.5" stroke-width="5" stroke="gray" />
<line x1="2250" y1="1025" x2="2325" y2="1025" stroke-width="5" stroke="gray" />
<line x1="2250" y1="912.5" x2="2250" y2="1025" stroke-width="5" stroke="gray" />
<text x="2260" y="973.75" font-family="Arial" font-size="30" font-weight="normal" fill="black" text-anchor="start">85</text>
<line x1="2325" y1="875" x2="2400" y2="875" stroke-width="5" stroke="gray" />
<line x1="2325" y1="950" x2="2400" y2="950" stroke-width="5" stroke="gray" />
<line x1="2325" y1="875" x2="2325" y2="950" stroke-width="5" stroke="gray" />
<text x="2335" y="917.5" font-family="Arial" font-size="30" font-weight="normal" fill="black" text-anchor="start">96</text>
<path d=" M 2398 876 L 2480 845 L 2480 905 Z" stroke-width="1" stroke="crimson" fill="crimson" /><path d=" M 2398 951 L 2480 920 L 2480 980 Z" stroke-width="1" stroke="green" fill="green" /><path d=" M 2323 1026 L 2405 995 L 2405 1055 Z" stroke-width="1" stroke="orange" fill="orange" /><path d=" M 2248 1101 L 2330 1070 L 2330 1130 Z" stroke-width="1" stroke="dodgerblue" fill="dodgerblue" /><text x="2100" y="1215" font-family="Arial" font-size="30" font-weight="normal" fill="black" text-anchor="start">iqtree-ET</text>
<line x1="375" y1="1568.75" x2="450" y2="1568.75" stroke-width="5" stroke="gray" />
<line x1="375" y1="1700" x2="450" y2="1700" stroke-width="5" stroke="gray" />
<line x1="375" y1="1568.75" x2="375" y2="1700" stroke-width="5" stroke="gray" />
<text x="385" y="1639.375" font-family="Arial" font-size="30" font-weight="normal" fill="black" text-anchor="start">95</text>
<line x1="450" y1="1512.5" x2="525" y2="1512.5" stroke-width="5" stroke="gray" />
<line x1="450" y1="1625" x2="525" y2="1625" stroke-width="5" stroke="gray" />
<line x1="450" y1="1512.5" x2="450" y2="1625" stroke-width="5" stroke="gray" />
<text x="460" y="1573.75" font-family="Arial" font-size="30" font-weight="normal" fill="black" text-anchor="start">33</text>
<line x1="525" y1="1475" x2="600" y2="1475" stroke-width="5" stroke="gray" />
<line x1="525" y1="1550" x2="600" y2="1550" stroke-width="5" stroke="gray" />
<line x1="525" y1="1475" x2="525" y2="1550" stroke-width="5" stroke="gray" />
<text x="535" y="1517.5" font-family="Arial" font-size="30" font-weight="normal" fill="black" text-anchor="start">43</text>
<path d=" M 598 1476 L 680 1445 L 680 1505 Z" stroke-width="1" stroke="crimson" fill="crimson" /><path d=" M 598 1551 L 680 1520 L 680 1580 Z" stroke-width="1" stroke="green" fill="green" /><path d=" M 523 1626 L 605 1595 L 605 1655 Z" stroke-width="1" stroke="orange" fill="orange" /><path d=" M 448 1701 L 530 1670 L 530 1730 Z" stroke-width="1" stroke="dodgerblue" fill="dodgerblue" /><text x="300" y="1815" font-family="Arial" font-size="30" font-weight="normal" fill="black" text-anchor="start">phyml-0</text>
<line x1="975" y1="1568.75" x2="1050" y2="1568.75" stroke-width="5" stroke="gray" />
<line x1="975" y1="1700" x2="1050" y2="1700" stroke-width="5" stroke="gray" />
<line x1="975" y1="1568.75" x2="975" y2="1700" stroke-width="5" stroke="gray" />
<text x="985" y="1639.375" font-family="Arial" font-size="30" font-weight="normal" fill="black" text-anchor="start">89</text>
<line x1="1050" y1="1512.5" x2="1125" y2="1512.5" stroke-width="5" stroke="gray" />
<line x1="1050" y1="1625" x2="1125" y2="1625" stroke-width="5" stroke="gray" />
<line x1="1050" y1="1512.5" x2="1050" y2="1625" stroke-width="5" stroke="gray" />
<text x="1060" y="1573.75" font-family="Arial" font-size="30" font-weight="normal" fill="black" text-anchor="start">39</text>
<line x1="1125" y1="1475" x2="1200" y2="1475" stroke-width="5" stroke="gray" />
<line x1="1125" y1="1550" x2="1200" y2="1550" stroke-width="5" stroke="gray" />
<line x1="1125" y1="1475" x2="1125" y2="1550" stroke-width="5" stroke="gray" />
<text x="1135" y="1517.5" font-family="Arial" font-size="30" font-weight="normal" fill="black" text-anchor="start">54</text>
<path d=" M 1198 1476 L 1280 1445 L 1280 1505 Z" stroke-width="1" stroke="crimson" fill="crimson" /><path d=" M 1198 1551 L 1280 1520 L 1280 1580 Z" stroke-width="1" stroke="green" fill="green" /><path d=" M 1123 1626 L 1205 1595 L 1205 1655 Z" stroke-width="1" stroke="orange" fill="orange" /><path d=" M 1048 1701 L 1130 1670 L 1130 1730 Z" stroke-width="1" stroke="dodgerblue" fill="dodgerblue" /><text x="900" y="1815" font-family="Arial" font-size="30" font-weight="normal" fill="black" text-anchor="start">phyml-M*</text>
<line x1="1575" y1="1568.75" x2="1650" y2="1568.75" stroke-width="5" stroke="gray" />
<line x1="1575" y1="1700" x2="1650" y2="1700" stroke-width="5" stroke="gray" />
<line x1="1575" y1="1568.75" x2="1575" y2="1700" stroke-width="5" stroke="gray" />
<text x="1585" y="1639.375" font-family="Arial" font-size="30" font-weight="normal" fill="black" text-anchor="start">99</text>
<line x1="1650" y1="1512.5" x2="1725" y2="1512.5" stroke-width="5" stroke="gray" />
<line x1="1650" y1="1625" x2="1725" y2="1625" stroke-width="5" stroke="gray" />
<line x1="1650" y1="1512.5" x2="1650" y2="1625" stroke-width="5" stroke="gray" />
<text x="1660" y="1573.75" font-family="Arial" font-size="30" font-weight="normal" fill="black" text-anchor="start">16</text>
<line x1="1725" y1="1475" x2="1800" y2="1475" stroke-width="5" stroke="gray" />
<line x1="1725" y1="1550" x2="1800" y2="1550" stroke-width="5" stroke="gray" />
<line x1="1725" y1="1475" x2="1725" y2="1550" stroke-width="5" stroke="gray" />
<text x="1735" y="1517.5" font-family="Arial" font-size="30" font-weight="normal" fill="black" text-anchor="start">27</text>
<path d=" M 1798 1476 L 1880 1445 L 1880 1505 Z" stroke-width="1" stroke="crimson" fill="crimson" /><path d=" M 1798 1551 L 1880 1520 L 1880 1580 Z" stroke-width="1" stroke="green" fill="green" /><path d=" M 1723 1626 L 1805 1595 L 1805 1655 Z" stroke-width="1" stroke="orange" fill="orange" /><path d=" M 1648 1701 L 1730 1670 L 1730 1730 Z" stroke-width="1" stroke="dodgerblue" fill="dodgerblue" /><text x="1500" y="1815" font-family="Arial" font-size="30" font-weight="normal" fill="black" text-anchor="start">phyml-EF</text>
<line x1="2175" y1="1568.75" x2="2250" y2="1568.75" stroke-width="5" stroke="gray" />
<line x1="2175" y1="1700" x2="2250" y2="1700" stroke-width="5" stroke="gray" />
<line x1="2175" y1="1568.75" x2="2175" y2="1700" stroke-width="5" stroke="gray" />
<text x="2185" y="1639.375" font-family="Arial" font-size="30" font-weight="normal" fill="black" text-anchor="start">99</text>
<line x1="2250" y1="1512.5" x2="2325" y2="1512.5" stroke-width="5" stroke="gray" />
<line x1="2250" y1="1625" x2="2325" y2="1625" stroke-width="5" stroke="gray" />
<line x1="2250" y1="1512.5" x2="2250" y2="1625" stroke-width="5" stroke="gray" />
<text x="2260" y="1573.75" font-family="Arial" font-size="30" font-weight="normal" fill="black" text-anchor="start">72</text>
<line x1="2325" y1="1475" x2="2400" y2="1475" stroke-width="5" stroke="gray" />
<line x1="2325" y1="1550" x2="2400" y2="1550" stroke-width="5" stroke="gray" />
<line x1="2325" y1="1475" x2="2325" y2="1550" stroke-width="5" stroke="gray" />
<text x="2335" y="1517.5" font-family="Arial" font-size="30" font-weight="normal" fill="black" text-anchor="start">84</text>
<path d=" M 2398 1476 L 2480 1445 L 2480 1505 Z" stroke-width="1" stroke="crimson" fill="crimson" /><path d=" M 2398 1551 L 2480 1520 L 2480 1580 Z" stroke-width="1" stroke="green" fill="green" /><path d=" M 2323 1626 L 2405 1595 L 2405 1655 Z" stroke-width="1" stroke="orange" fill="orange" /><path d=" M 2248 1701 L 2330 1670 L 2330 1730 Z" stroke-width="1" stroke="dodgerblue" fill="dodgerblue" /><text x="2100" y="1815" font-family="Arial" font-size="30" font-weight="normal" fill="black" text-anchor="start">phyml-ET</text>
<line x1="375" y1="2168.75" x2="450" y2="2168.75" stroke-width="5" stroke="gray" />
<line x1="375" y1="2300" x2="450" y2="2300" stroke-width="5" stroke="gray" />
<line x1="375" y1="2168.75" x2="375" y2="2300" stroke-width="5" stroke="gray" />
<text x="385" y="2239.375" font-family="Arial" font-size="30" font-weight="normal" fill="black" text-anchor="start">40</text>
<line x1="450" y1="2112.5" x2="525" y2="2112.5" stroke-width="5" stroke="gray" />
<line x1="450" y1="2225" x2="525" y2="2225" stroke-width="5" stroke="gray" />
<line x1="450" y1="2112.5" x2="450" y2="2225" stroke-width="5" stroke="gray" />
<text x="460" y="2173.75" font-family="Arial" font-size="30" font-weight="normal" fill="black" text-anchor="start">86</text>
<line x1="525" y1="2075" x2="600" y2="2075" stroke-width="5" stroke="gray" />
<line x1="525" y1="2150" x2="600" y2="2150" stroke-width="5" stroke="gray" />
<line x1="525" y1="2075" x2="525" y2="2150" stroke-width="5" stroke="gray" />
<text x="535" y="2117.5" font-family="Arial" font-size="30" font-weight="normal" fill="black" text-anchor="start">53</text>
<path d=" M 598 2076 L 680 2045 L 680 2105 Z" stroke-width="1" stroke="crimson" fill="crimson" /><path d=" M 598 2151 L 680 2120 L 680 2180 Z" stroke-width="1" stroke="green" fill="green" /><path d=" M 523 2226 L 605 2195 L 605 2255 Z" stroke-width="1" stroke="orange" fill="orange" /><path d=" M 448 2301 L 530 2270 L 530 2330 Z" stroke-width="1" stroke="dodgerblue" fill="dodgerblue" /><text x="300" y="2415" font-family="Arial" font-size="30" font-weight="normal" fill="black" text-anchor="start">raxml-0</text>
<line x1="975" y1="2168.75" x2="1050" y2="2168.75" stroke-width="5" stroke="gray" />
<line x1="975" y1="2300" x2="1050" y2="2300" stroke-width="5" stroke="gray" />
<line x1="975" y1="2168.75" x2="975" y2="2300" stroke-width="5" stroke="gray" />
<text x="985" y="2239.375" font-family="Arial" font-size="30" font-weight="normal" fill="black" text-anchor="start">53</text>
<line x1="1050" y1="2112.5" x2="1125" y2="2112.5" stroke-width="5" stroke="gray" />
<line x1="1050" y1="2225" x2="1125" y2="2225" stroke-width="5" stroke="gray" />
<line x1="1050" y1="2112.5" x2="1050" y2="2225" stroke-width="5" stroke="gray" />
<text x="1060" y="2173.75" font-family="Arial" font-size="30" font-weight="normal" fill="black" text-anchor="start">85</text>
<line x1="1125" y1="2075" x2="1200" y2="2075" stroke-width="5" stroke="gray" />
<line x1="1125" y1="2150" x2="1200" y2="2150" stroke-width="5" stroke="gray" />
<line x1="1125" y1="2075" x2="1125" y2="2150" stroke-width="5" stroke="gray" />
<text x="1135" y="2117.5" font-family="Arial" font-size="30" font-weight="normal" fill="black" text-anchor="start">68</text>
<path d=" M 1198 2076 L 1280 2045 L 1280 2105 Z" stroke-width="1" stroke="crimson" fill="crimson" /><path d=" M 1198 2151 L 1280 2120 L 1280 2180 Z" stroke-width="1" stroke="green" fill="green" /><path d=" M 1123 2226 L 1205 2195 L 1205 2255 Z" stroke-width="1" stroke="orange" fill="orange" /><path d=" M 1048 2301 L 1130 2270 L 1130 2330 Z" stroke-width="1" stroke="dodgerblue" fill="dodgerblue" /><text x="900" y="2415" font-family="Arial" font-size="30" font-weight="normal" fill="black" text-anchor="start">raxml-M*</text>
<line x1="1575" y1="2168.75" x2="1650" y2="2168.75" stroke-width="5" stroke="gray" />
<line x1="1575" y1="2300" x2="1650" y2="2300" stroke-width="5" stroke="gray" />
<line x1="1575" y1="2168.75" x2="1575" y2="2300" stroke-width="5" stroke="gray" />
<text x="1585" y="2239.375" font-family="Arial" font-size="30" font-weight="normal" fill="black" text-anchor="start">21</text>
<line x1="1650" y1="2112.5" x2="1725" y2="2112.5" stroke-width="5" stroke="gray" />
<line x1="1650" y1="2225" x2="1725" y2="2225" stroke-width="5" stroke="gray" />
<line x1="1650" y1="2112.5" x2="1650" y2="2225" stroke-width="5" stroke="gray" />
<text x="1660" y="2173.75" font-family="Arial" font-size="30" font-weight="normal" fill="black" text-anchor="start">91</text>
<line x1="1725" y1="2075" x2="1800" y2="2075" stroke-width="5" stroke="gray" />
<line x1="1725" y1="2150" x2="1800" y2="2150" stroke-width="5" stroke="gray" />
<line x1="1725" y1="2075" x2="1725" y2="2150" stroke-width="5" stroke="gray" />
<text x="1735" y="2117.5" font-family="Arial" font-size="30" font-weight="normal" fill="black" text-anchor="start">28</text>
<path d=" M 1798 2076 L 1880 2045 L 1880 2105 Z" stroke-width="1" stroke="crimson" fill="crimson" /><path d=" M 1798 2151 L 1880 2120 L 1880 2180 Z" stroke-width="1" stroke="green" fill="green" /><path d=" M 1723 2226 L 1805 2195 L 1805 2255 Z" stroke-width="1" stroke="orange" fill="orange" /><path d=" M 1648 2301 L 1730 2270 L 1730 2330 Z" stroke-width="1" stroke="dodgerblue" fill="dodgerblue" /><text x="1500" y="2415" font-family="Arial" font-size="30" font-weight="normal" fill="black" text-anchor="start">raxml-EF</text>
<line x1="2175" y1="2168.75" x2="2250" y2="2168.75" stroke-width="5" stroke="gray" />
<line x1="2175" y1="2300" x2="2250" y2="2300" stroke-width="5" stroke="gray" />
<line x1="2175" y1="2168.75" x2="2175" y2="2300" stroke-width="5" stroke="gray" />
<text x="2185" y="2239.375" font-family="Arial" font-size="30" font-weight="normal" fill="black" text-anchor="start">73</text>
<line x1="2250" y1="2112.5" x2="2325" y2="2112.5" stroke-width="5" stroke="gray" />
<line x1="2250" y1="2225" x2="2325" y2="2225" stroke-width="5" stroke="gray" />
<line x1="2250" y1="2112.5" x2="2250" y2="2225" stroke-width="5" stroke="gray" />
<text x="2260" y="2173.75" font-family="Arial" font-size="30" font-weight="normal" fill="black" text-anchor="start">95</text>
<line x1="2325" y1="2075" x2="2400" y2="2075" stroke-width="5" stroke="gray" />
<line x1="2325" y1="2150" x2="2400" y2="2150" stroke-width="5" stroke="gray" />
<line x1="2325" y1="2075" x2="2325" y2="2150" stroke-width="5" stroke="gray" />
<text x="2335" y="2117.5" font-family="Arial" font-size="30" font-weight="normal" fill="black" text-anchor="start">85</text>
<path d=" M 2398 2076 L 2480 2045 L 2480 2105 Z" stroke-width="1" stroke="crimson" fill="crimson" /><path d=" M 2398 2151 L 2480 2120 L 2480 2180 Z" stroke-width="1" stroke="green" fill="green" /><path d=" M 2323 2226 L 2405 2195 L 2405 2255 Z" stroke-width="1" stroke="orange" fill="orange" /><path d=" M 2248 2301 L 2330 2270 L 2330 2330 Z" stroke-width="1" stroke="dodgerblue" fill="dodgerblue" /><text x="2100" y="2415" font-family="Arial" font-size="30" font-weight="normal" fill="black" text-anchor="start">raxml-ET</text>
<line x1="150" y1="150" x2="2550" y2="150" stroke-width="3" stroke="darkgray" />
<line x1="150" y1="750" x2="2550" y2="750" stroke-width="3" stroke="darkgray" />
<line x1="150" y1="1350" x2="2550" y2="1350" stroke-width="3" stroke="darkgray" />
<line x1="150" y1="1950" x2="2550" y2="1950" stroke-width="3" stroke="darkgray" />
<line x1="150" y1="2550" x2="2550" y2="2550" stroke-width="3" stroke="darkgray" />
<line x1="150" y1="150" x2="150" y2="2550" stroke-width="3" stroke="darkgray" />
<line x1="750" y1="150" x2="750" y2="2550" stroke-width="3" stroke="darkgray" />
<line x1="1350" y1="150" x2="1350" y2="2550" stroke-width="3" stroke="darkgray" />
<line x1="1950" y1="150" x2="1950" y2="2550" stroke-width="3" stroke="darkgray" />
<line x1="2550" y1="150" x2="2550" y2="2550" stroke-width="3" stroke="darkgray" />
</svg>
